<svg xmlns="http://www.w3.org/2000/svg" viewBox="0 0 24 24" width="48" height="48" fill="#25D366">
  <path d="M12 2C6.477 2 2 6.477 2 12c0 1.89.524 3.656 1.435 5.163L2 22l4.978-1.413A9.953 9.953 0 0 0 12 22c5.523 0 10-4.477 10-10S17.523 2 12 2zm0 18a7.946 7.946 0 0 1-4.073-1.117l-.292-.174-3.038.862.872-3.018-.19-.31A7.96 7.96 0 0 1 4 12c0-4.411 3.589-8 8-8s8 3.589 8 8-3.589 8-8 8zm4.406-5.884c-.241-.121-1.425-.703-1.646-.783-.22-.08-.38-.12-.54.12-.16.24-.621.783-.762.943-.14.16-.28.18-.521.06-.241-.12-1.017-.375-1.937-1.196-.716-.638-1.2-1.426-1.34-1.667-.14-.24-.015-.37.105-.49.108-.107.241-.28.361-.42.12-.14.16-.24.24-.4.08-.16.04-.3-.02-.42-.06-.12-.54-1.302-.74-1.782-.194-.468-.392-.404-.54-.412l-.46-.008c-.16 0-.42.06-.64.3-.22.24-.84.82-.84 2.002s.86 2.322.98 2.482c.12.16 1.694 2.587 4.105 3.627.574.248 1.021.396 1.37.507.576.183 1.1.157 1.514.095.462-.069 1.425-.583 1.626-1.146.2-.562.2-1.044.14-1.145-.06-.1-.22-.16-.46-.28z"/>
</svg>
